<svg xmlns="http://www.w3.org/2000/svg" version="1.1" xmlns:xlink="http://www.w3.org/1999/xlink" xmlns:svgjs="http://svgjs.dev/svgjs" width="1000" height="1125" viewBox="0 0 1000 1125"><g transform="matrix(1,0,0,1,0.0011008540699322111,0)"><svg viewBox="0 0 320 360" data-background-color="#ffffff" preserveAspectRatio="xMidYMid meet" height="1125" width="1000" xmlns="http://www.w3.org/2000/svg" xmlns:xlink="http://www.w3.org/1999/xlink"><g id="tight-bounds" transform="matrix(1,0,0,1,0.00010353528136874957,0)"><svg viewBox="0 0 320 360" height="360" width="320"><g><svg></svg></g><g><svg viewBox="0 0 320 360" height="360" width="320"><g><path xmlns="http://www.w3.org/2000/svg" d="M307.925 179.999l6.575-11.387c11.322-19.607 4.604-44.679-15.003-56.001l-11.387-6.575v-13.151c0-22.639-18.354-40.994-40.994-40.994h-13.151l-6.575-11.387c-11.322-19.607-36.393-26.325-56.001-15.003l-11.39 6.572-11.387-6.576c-19.607-11.318-44.679-4.6-56.001 15.007l-6.575 11.387h-13.151c-22.639 0-40.994 18.354-40.994 40.994v13.151l-11.387 6.575c-19.607 11.322-26.325 36.393-15.003 56.001l6.572 11.387-6.576 11.387c-11.318 19.607-4.6 44.679 15.007 56l11.387 6.576v13.15c0 22.639 18.354 40.994 40.994 40.994h13.151l6.575 11.387c11.322 19.607 36.393 26.325 56.001 15.003l11.387-6.571 11.387 6.575c19.607 11.322 44.679 4.604 56-15.003l6.576-11.387h13.15c22.639 0 40.994-18.354 40.994-40.994v-13.151l11.387-6.575c19.607-11.322 26.325-36.393 15.003-56.001zM297.702 115.716c8.655 4.996 14.842 13.062 17.428 22.713 2.586 9.65 1.261 19.734-3.735 28.384l-5.538 9.596-17.747-30.74v-35.494zM251.155 271.155l-57.791 33.365h-66.731l-57.791-33.365-33.365-57.791v-66.731l33.365-57.791 57.791-33.365h66.731l57.791 33.365 33.365 57.791v66.731zM284.517 220.539v31.351l-27.151 15.676zM247.566 277.366l-15.676 27.151h-31.351zM187.15 308.106l-27.151 15.676-27.151-15.676zM119.459 304.517h-31.352l-15.676-27.151zM62.632 267.566l-27.151-15.676v-31.351zM31.891 207.15l-15.675-27.151 15.675-27.151zM35.481 139.459v-31.352l27.151-15.676zM72.431 82.632l15.676-27.151h31.352zM132.848 51.891l27.151-15.675 27.151 15.675zM200.539 55.481h31.351l15.676 27.151zM257.366 92.431l27.151 15.676v31.352zM288.106 152.848l15.676 27.151-15.676 27.151zM247.112 55.481c9.992 0 19.384 3.889 26.452 10.956 7.063 7.063 10.956 16.46 10.957 26.452v11.079l-30.741-17.747-17.747-30.74zM173.18 28.606c8.655-4.996 18.735-6.322 28.385-3.735 9.65 2.586 17.716 8.777 22.712 17.428l5.538 9.596h-35.494l-30.741-17.747zM95.716 42.295c4.996-8.655 13.062-14.842 22.713-17.428 9.65-2.586 19.734-1.261 28.384 3.736l9.596 5.537-30.74 17.747h-35.494zM35.481 92.885c0-9.992 3.889-19.384 10.956-26.452 7.063-7.063 16.46-10.956 26.452-10.956h11.079l-17.747 30.74-30.74 17.747zM8.606 166.817c-4.996-8.655-6.322-18.735-3.735-28.385 2.586-9.65 8.777-17.716 17.428-22.712l9.596-5.538v35.495l-17.747 30.74zM22.295 244.281c-8.655-4.996-14.842-13.062-17.428-22.712-2.586-9.65-1.261-19.734 3.736-28.385l5.537-9.596 17.747 30.74v35.495zM72.885 304.517c-9.992 0-19.384-3.889-26.452-10.957-7.063-7.063-10.956-16.46-10.956-26.451v-11.08l30.74 17.747 17.747 30.741zM146.817 331.391c-8.655 4.996-18.735 6.322-28.385 3.735-9.65-2.586-17.716-8.777-22.712-17.428l-5.538-9.596h35.495l30.74 17.747zM224.281 317.702c-4.996 8.655-13.062 14.842-22.712 17.428-9.65 2.586-19.734 1.261-28.385-3.735l-9.596-5.538 30.74-17.747h35.495zM284.517 267.112c0 9.992-3.889 19.384-10.957 26.452-7.063 7.063-16.46 10.956-26.451 10.957h-11.08l17.747-30.741 30.741-17.747zM315.13 221.565c-2.586 9.65-8.777 17.716-17.428 22.712l-9.596 5.538v-35.494l17.747-30.741 5.538 9.596c4.996 8.658 6.326 18.739 3.739 28.389z" fill="#4d236f" fill-rule="nonzero" stroke="none" stroke-width="1" stroke-linecap="butt" stroke-linejoin="miter" stroke-miterlimit="10" stroke-dasharray="" stroke-dashoffset="0" font-family="none" font-weight="none" font-size="none" text-anchor="none" style="mix-blend-mode: normal" data-fill-palette-color="tertiary"></path></g><g transform="matrix(1,0,0,1,84.8911465892598,90)"><svg viewBox="0 0 150.2177068214804 180" height="180" width="150.2177068214804"><g><svg viewBox="0 0 150.2177068214804 180" height="180" width="150.2177068214804"><g><svg viewBox="0 0 150.2177068214804 180" height="180" width="150.2177068214804"><g><svg viewBox="0 0 150.2177068214804 180" height="180" width="150.2177068214804"><g id="textblocktransform"><svg viewBox="0 0 150.2177068214804 180" height="180" width="150.2177068214804" id="textblock"><g><svg viewBox="0 0 150.2177068214804 180" height="180" width="150.2177068214804"><g transform="matrix(1,0,0,1,0,0)"><svg width="150.2177068214804" viewBox="0.45000001788139343 -33.75 28.75 34.45000076293945" height="180" data-palette-color="#7a26c1"><path d="M27-3.95Q27.6-3.85 28.4-2.85 29.2-1.85 29.2-1L29.2-1Q29.2-0.45 28.35-0.15L28.35-0.15Q28.05-0.05 27.38 0.23 26.7 0.5 26.15 0.6 25.6 0.7 24.9 0.7L24.9 0.7Q23.85 0.7 23.3 0.45L23.3 0.45Q21.9-0.15 19.65-2.35 17.4-4.55 15.3-7.38 13.2-10.2 12.2-12.65L12.2-12.65 11.9-12.65Q10.5-12.65 9.85-12.7L9.85-12.7Q8.35-7.15 7.35-3L7.35-3Q6.95-1.25 6.13-0.3 5.3 0.65 3.45 0.65L3.45 0.65Q1.9 0.65 1.18 0.13 0.45-0.4 0.45-1.65L0.45-1.65Q0.45-2.2 0.6-2.7L0.6-2.7 6.65-26.05Q4.05-25.3 2.7-24L2.7-24Q2.15-24.6 1.83-25.58 1.5-26.55 1.5-27.5L1.5-27.5Q1.5-28.2 1.93-28.63 2.35-29.05 3.1-29.4L3.1-29.4Q3.35-29.55 4.93-30.3 6.5-31.05 7.95-31.45L7.95-31.45Q8.4-32.45 9.33-33.1 10.25-33.75 11.7-33.75L11.7-33.75Q12.55-33.75 13.1-33.43 13.65-33.1 13.85-32.6L13.85-32.6Q15.7-33.2 18.3-33.2L18.3-33.2Q21.5-33.2 23.88-31.93 26.25-30.65 27.5-28.65 28.75-26.65 28.75-24.6L28.75-24.6Q28.75-20.05 25.83-17.32 22.9-14.6 18.3-13.45L18.3-13.45Q19.35-11.65 21.1-9.4 22.85-7.15 24.43-5.58 26-4 26.5-4L26.5-4 27-3.95ZM13.3-27.4Q11.85-21.6 10.9-17.35L10.9-17.35Q11.5-17.3 12.6-17.3L12.6-17.3Q15-17.3 17.4-18.03 19.8-18.75 21.43-20.2 23.05-21.65 23.05-23.8L23.05-23.8Q23.05-25.75 21.45-26.93 19.85-28.1 17.15-28.1L17.15-28.1Q15.65-28.1 13.3-27.4L13.3-27.4Z" opacity="1" transform="matrix(1,0,0,1,0,0)" fill="#7a26c1" class="undefined-text-0" data-fill-palette-color="primary" id="text-0"></path></svg></g></svg></g></svg></g></svg></g><g></g></svg></g></svg></g></svg></g></svg></g><defs></defs></svg><rect width="320" height="360" fill="none" stroke="none" visibility="hidden"></rect></g></svg></g></svg>